<?xml version="1.0" standalone="no"?>
<!DOCTYPE svg PUBLIC "-//W3C//DTD SVG 20010904//EN"
 "http://www.w3.org/TR/2001/REC-SVG-20010904/DTD/svg10.dtd">
<svg version="1.0" xmlns="http://www.w3.org/2000/svg"
 width="640.000000pt" height="480.000000pt" viewBox="0 0 640.000000 480.000000"
 preserveAspectRatio="xMidYMid meet">

<g transform="translate(0.000000,480.000000) scale(0.100000,-0.100000)"
fill="#000000" stroke="none">
<path d="M2 4099 l3 -702 53 -17 c29 -10 56 -21 60 -25 9 -9 -44 4 -86 22
l-32 13 0 -1695 0 -1695 1618 1 1617 0 -30 24 c-16 13 -88 67 -160 121 -371
278 -692 620 -932 994 -83 130 -235 419 -235 447 -1 12 -4 20 -9 17 -5 -3 -6
1 -3 9 3 8 -8 39 -24 68 -17 30 -33 70 -37 89 -3 19 -20 78 -35 130 -39 125
-55 192 -79 330 -24 133 -50 406 -40 421 4 8 23 8 61 0 54 -12 88 -7 88 11 0
5 6 6 13 2 6 -4 8 -3 4 1 -4 5 -29 9 -55 8 -47 -1 -47 -1 -8 5 22 4 41 12 43
19 3 7 -3 9 -16 6 -11 -3 -43 0 -71 7 -39 9 -54 9 -65 0 -8 -6 -20 -10 -27 -7
-9 4 -8 6 3 6 9 1 19 10 22 22 4 16 -1 23 -24 31 -16 5 -29 14 -29 20 0 6 -11
19 -25 30 -14 11 -25 28 -25 39 0 26 53 26 77 0 10 -10 42 -26 72 -35 64 -19
71 -19 71 -6 0 5 -19 15 -42 21 -24 7 -50 19 -59 26 -9 8 -33 18 -52 24 -29 8
-37 16 -43 42 -3 17 -12 41 -19 52 -7 11 -16 35 -20 54 -7 33 -7 34 21 27 16
-4 54 -8 84 -9 35 -1 60 -8 68 -17 9 -10 11 -10 6 -1 -3 7 -1 16 5 20 21 13 0
41 -38 50 -71 18 -107 23 -91 12 12 -9 11 -11 -7 -11 -15 0 -23 -6 -23 -16 0
-14 -3 -14 -15 -4 -8 7 -15 22 -15 34 0 38 -22 46 -340 120 -609 141 -649 148
-712 131 -39 -10 -35 4 18 68 25 31 43 61 39 67 -9 14 -48 13 -63 -2 -10 -10
-15 -10 -22 2 -7 11 -2 23 18 43 22 23 24 29 12 37 -8 5 -20 10 -27 10 -23 0
-24 20 -7 102 24 115 42 135 67 76 8 -18 17 -54 20 -81 9 -66 38 -117 93 -166
26 -22 50 -41 54 -41 4 0 11 -7 14 -16 4 -9 2 -13 -5 -8 -7 4 -10 1 -7 -7 9
-28 67 -50 155 -59 132 -14 201 -11 93 4 -84 12 -169 40 -157 52 4 4 2 15 -3
25 -7 12 -6 19 3 22 9 4 9 6 -1 6 -7 1 -11 5 -8 10 3 5 -7 11 -23 14 -33 7
-112 81 -136 128 l-18 34 23 -20 c23 -20 23 -20 16 0 -4 11 -3 16 1 11 4 -4 8
-16 8 -27 0 -10 5 -18 10 -18 6 0 9 6 9 14 -1 7 4 12 11 11 22 -3 44 -27 39
-41 -3 -7 4 -18 15 -25 16 -8 21 -8 21 1 0 7 9 4 23 -8 14 -13 42 -22 77 -26
54 -6 54 -6 27 9 -38 21 -32 24 23 14 25 -5 63 -9 86 -10 22 0 49 -7 60 -15
22 -16 38 -20 29 -6 -3 6 3 9 14 8 11 0 17 -5 14 -10 -3 -5 -2 -8 3 -5 59 28
108 48 115 48 6 0 7 5 3 12 -5 7 -2 9 9 5 8 -3 21 1 27 8 7 8 16 12 21 9 5 -3
8 -2 7 3 -2 4 7 19 20 33 13 14 35 39 50 55 15 17 24 26 20 21 -5 -6 -8 -14
-8 -20 0 -5 6 -1 14 9 8 11 12 25 9 32 -3 7 -1 13 3 13 8 0 13 21 17 77 1 12
6 21 11 20 5 -1 11 4 13 11 3 6 0 12 -6 12 -6 0 -11 7 -11 16 0 8 5 12 10 9 6
-3 10 1 10 10 0 11 -5 15 -15 11 -8 -3 -15 -1 -15 4 0 6 5 10 10 10 6 0 10 5
10 11 0 6 -6 9 -14 6 -9 -4 -16 3 -20 16 -7 28 -63 90 -83 93 -12 2 -12 -2 4
-19 42 -48 46 -60 10 -30 -55 48 -89 63 -185 80 -109 19 -196 12 -269 -22 -56
-25 -148 -87 -171 -115 -26 -32 -62 -122 -62 -157 0 -46 -6 -40 -13 15 -3 24
-1 40 4 36 5 -3 10 4 11 15 0 12 1 27 2 34 1 6 6 15 11 19 6 5 5 8 -2 8 -7 0
-13 7 -13 16 0 14 2 15 18 3 15 -13 16 -12 4 3 -9 11 -10 18 -2 23 5 3 10 12
10 18 -1 7 -11 -1 -24 -17 -21 -25 -26 -27 -46 -16 l-22 12 33 34 c18 19 41
36 51 40 11 3 15 10 11 17 -4 7 1 6 10 -2 9 -7 17 -20 17 -27 0 -17 16 -18 26
-2 5 7 2 9 -7 4 -8 -4 0 5 16 19 17 15 24 24 18 21 -7 -4 -20 -3 -28 2 -13 7
-12 10 10 20 32 15 33 34 1 26 -30 -7 -43 12 -17 25 25 14 74 14 66 1 -3 -5 3
-18 13 -28 17 -17 23 -18 43 -7 13 7 35 18 49 23 l25 11 -27 0 c-16 1 -28 4
-28 9 0 4 32 22 71 41 l70 33 36 -18 35 -19 23 29 c26 32 55 30 55 -4 0 -36
36 -22 83 34 39 44 53 54 89 60 81 13 118 27 153 57 38 34 43 30 16 -16 -10
-17 -31 -33 -49 -39 -33 -9 -40 -20 -22 -31 6 -4 26 5 45 20 19 14 35 22 35
17 0 -12 -34 -42 -48 -42 -20 0 -14 -15 17 -43 34 -30 34 -29 166 22 128 51
155 63 150 71 -8 13 41 58 86 78 47 22 131 31 162 18 11 -5 17 -4 17 4 0 6 5
8 10 5 14 -9 104 21 160 53 41 23 43 23 26 4 -19 -21 -48 -34 -222 -97 -50
-18 -106 -39 -125 -47 -19 -8 -50 -20 -69 -27 -125 -44 -256 -95 -265 -102 -5
-5 -19 -9 -32 -9 -13 0 -23 -3 -23 -7 0 -3 30 -39 68 -79 37 -40 94 -104 127
-143 49 -58 73 -78 130 -105 113 -54 110 -54 141 1 115 203 245 375 409 539
129 131 286 263 399 336 l59 38 -249 0 -249 0 -58 -88 c-68 -105 -96 -123
-222 -147 -93 -17 -145 -14 -165 9 -9 12 -7 13 10 9 16 -4 19 -2 13 12 -5 14
-3 16 8 10 11 -6 12 -5 2 6 -15 16 -18 73 -3 64 6 -4 10 6 10 22 0 22 -2 25
-10 13 -6 -9 -10 -10 -10 -3 0 17 30 45 44 40 6 -2 10 -13 8 -25 -2 -11 1 -23
6 -26 14 -9 24 24 12 39 -11 13 -3 45 11 45 5 0 9 -7 9 -15 0 -8 5 -15 11 -15
5 0 7 4 4 10 -3 6 1 7 9 4 9 -3 14 -9 11 -13 -6 -10 27 -7 46 5 8 5 18 17 22
27 6 16 -5 17 -152 17 -87 0 -161 -3 -164 -6 -3 -4 -2 -15 3 -24 7 -14 5 -20
-7 -25 -10 -3 -19 -2 -21 4 -2 6 -20 13 -40 17 -20 4 -43 13 -51 21 -16 16
-127 15 -128 -2 -4 -44 -18 -105 -29 -127 -21 -41 -54 -58 -131 -69 -37 -5
-147 -25 -243 -44 -96 -19 -200 -39 -230 -45 -155 -31 -292 -84 -410 -158 -53
-34 -139 -100 -170 -132 -30 -29 -125 -136 -162 -180 -88 -106 -87 -106 -88
-87 0 9 5 17 11 17 6 0 9 7 5 15 -3 8 -2 14 3 12 12 -3 141 149 141 167 0 9
-4 16 -9 16 -10 0 -24 30 -17 38 3 2 17 -9 32 -24 16 -18 25 -22 21 -12 -4 11
-2 17 6 15 6 -1 11 9 11 25 -1 24 1 26 19 16 17 -9 24 -7 39 12 10 12 15 27
11 33 -3 6 -1 7 6 3 15 -10 43 13 34 27 -4 6 -1 7 7 2 7 -4 15 -4 19 1 3 5 19
18 34 27 23 15 26 21 17 32 -13 15 -6 35 12 35 7 0 6 -5 -1 -14 -10 -12 -7
-15 18 -14 28 1 29 2 13 15 -16 12 -16 13 2 6 14 -5 17 -3 11 7 -6 10 -3 12
15 7 23 -6 107 29 96 40 -3 3 -12 0 -21 -7 -21 -17 -27 -9 -10 13 11 15 17 16
34 8 31 -17 46 -14 30 6 -13 15 -12 15 8 5 29 -16 30 -15 36 8 3 11 13 20 22
20 10 0 13 -5 9 -12 -5 -8 -2 -9 12 -4 10 4 52 14 94 23 86 19 88 19 72 35 -7
7 -12 8 -12 2 0 -5 -11 -11 -26 -12 -15 -1 -23 2 -19 8 4 6 11 8 16 5 5 -4 9
-2 9 3 0 15 40 8 50 -8 9 -13 11 -13 20 0 5 8 10 21 10 28 0 6 6 12 14 12 8 0
17 8 21 18 6 16 7 16 16 -1 6 -9 15 -14 21 -11 7 5 9 0 6 -14 -5 -18 -2 -22
17 -22 12 0 30 10 38 23 14 19 16 19 16 4 1 -14 6 -16 29 -11 36 9 44 18 9 12
-21 -4 -25 -2 -17 7 8 9 7 15 -2 18 -7 3 3 4 22 1 27 -3 30 -2 15 5 l-20 9 20
8 c11 5 41 9 67 9 27 0 48 4 48 9 0 5 8 16 19 25 10 9 21 26 25 37 9 30 -23
37 -74 17 -35 -14 -40 -14 -55 1 -15 15 -14 16 14 16 16 0 33 5 36 10 4 6 11
8 16 5 5 -4 9 -1 9 6 0 8 7 6 19 -5 16 -15 19 -15 31 -1 15 18 58 15 71 -6 6
-10 9 -5 9 19 0 24 -4 32 -18 32 -10 0 -24 -6 -30 -12 -10 -10 -17 -10 -31 -1
-13 8 -197 12 -670 13 l-651 1 2 -702z m1895 649 c-3 -8 -6 -5 -6 6 -1 11 2
17 5 13 3 -3 4 -12 1 -19z m-84 -32 c1 -5 -11 -10 -26 -10 -26 -2 -27 0 -11
11 19 14 34 13 37 -1z m-749 -11 c3 -8 1 -15 -4 -15 -6 0 -10 7 -10 15 0 8 2
15 4 15 2 0 6 -7 10 -15z m126 6 c0 -5 3 -18 7 -28 6 -17 5 -17 -15 1 -26 22
-28 36 -7 36 8 0 15 -4 15 -9z m113 -11 c-4 -16 -11 -19 -27 -14 -30 9 -33 14
-16 24 27 17 49 12 43 -10z m-643 0 c0 -5 -4 -10 -10 -10 -5 0 -10 5 -10 10 0
6 5 10 10 10 6 0 10 -4 10 -10z m354 -28 c-1 -7 -2 -16 -2 -21 -1 -4 -17 -7
-36 -4 -29 3 -34 1 -29 -16 4 -15 0 -18 -21 -14 -14 3 -26 11 -26 17 0 16 41
38 61 34 7 -2 13 2 12 8 -1 6 8 10 20 9 12 -1 22 -7 21 -13z m-114 4 c0 -3 -4
-8 -10 -11 -5 -3 -10 -1 -10 4 0 6 5 11 10 11 6 0 10 -2 10 -4z m936 -36 c0
-11 -1 -20 -3 -20 -1 0 -7 9 -13 20 -8 15 -8 20 3 20 7 0 13 -9 13 -20z m-977
-30 c6 8 13 12 16 8 7 -7 -23 -58 -35 -58 -4 0 -7 14 -8 32 -1 24 2 28 9 18 8
-13 10 -13 18 0z m-119 -4 c0 -11 -19 -15 -25 -6 -3 5 1 10 9 10 9 0 16 -2 16
-4z m755 -6 c-3 -5 -11 -10 -16 -10 -6 0 -7 5 -4 10 3 6 11 10 16 10 6 0 7 -4
4 -10z m287 -14 c29 -5 39 -3 47 11 6 10 11 13 11 6 0 -6 -5 -15 -12 -19 -14
-9 74 -42 115 -43 15 -1 41 -8 57 -16 16 -9 51 -18 77 -22 42 -6 44 -7 22 -16
-13 -5 -60 -10 -104 -10 -122 -3 -204 31 -257 106 -12 18 -16 27 -8 21 8 -6
32 -14 52 -18z m-862 4 c0 -5 -4 -10 -10 -10 -5 0 -10 5 -10 10 0 6 5 10 10
10 6 0 10 -4 10 -10z m-215 -17 c18 -14 18 -15 2 -9 -10 3 -23 6 -28 6 -5 0
-9 5 -9 10 0 14 12 12 35 -7z m75 7 c0 -5 -9 -10 -20 -10 -11 0 -20 5 -20 10
0 6 9 10 20 10 11 0 20 -4 20 -10z m293 -5 c-3 -9 -8 -14 -10 -11 -3 3 -2 9 2
15 9 16 15 13 8 -4z m-276 -21 c-3 -3 -12 -4 -19 -1 -8 3 -5 6 6 6 11 1 17 -2
13 -5z m590 -10 c-3 -3 -12 -4 -19 -1 -8 3 -5 6 6 6 11 1 17 -2 13 -5z m-590
-10 c-3 -3 -12 -4 -19 -1 -8 3 -5 6 6 6 11 1 17 -2 13 -5z m43 2 c0 -11 -19
-15 -25 -6 -3 5 1 10 9 10 9 0 16 -2 16 -4z m-111 -17 c-18 -11 -39 -11 -39 0
0 5 12 9 26 9 18 0 22 -3 13 -9z m460 7 c-10 -10 -79 -24 -79 -16 0 8 26 16
64 19 11 0 17 -1 15 -3z m-129 -26 c0 -5 -5 -10 -11 -10 -5 0 -7 5 -4 10 3 6
8 10 11 10 2 0 4 -4 4 -10z m-110 -20 c-8 -5 -22 -10 -30 -10 -13 0 -13 1 0
10 8 5 22 10 30 10 13 0 13 -1 0 -10z m-470 -10 c-19 -13 -30 -13 -30 0 0 6
10 10 23 10 18 0 19 -2 7 -10z m-84 -37 c-7 -7 -26 7 -26 19 0 6 6 6 15 -2 9
-7 13 -15 11 -17z m170 8 c-4 -5 0 -12 6 -14 7 -3 2 -6 -11 -6 -20 -1 -21 1
-11 14 14 16 25 21 16 6z m-121 -91 c-3 -5 -11 -10 -16 -10 -6 0 -7 5 -4 10 3
6 11 10 16 10 6 0 7 -4 4 -10z m-218 -105 c0 -8 -4 -12 -9 -9 -5 3 -6 10 -3
15 9 13 12 11 12 -6z m33 11 c0 -3 -4 -8 -10 -11 -5 -3 -10 -1 -10 4 0 6 5 11
10 11 6 0 10 -2 10 -4z m-82 -120 c-7 -8 -15 -12 -17 -11 -5 6 10 25 20 25 5
0 4 -6 -3 -14z m-32 -44 c-22 -5 -30 3 -21 18 5 8 11 7 22 -2 15 -12 14 -13
-1 -16z m-55 -49 c-10 -17 -10 -17 -11 0 0 9 -6 17 -12 17 -9 0 -8 3 2 10 21
13 34 -4 21 -27z m39 2 c-7 -9 -15 -13 -19 -10 -3 3 1 10 9 15 21 14 24 12 10
-5z m1027 -14 c64 -46 108 -165 70 -188 -16 -10 -31 -41 -31 -68 -1 -25 -84
-80 -150 -100 -95 -29 -179 -14 -242 42 -33 28 -58 83 -31 67 8 -5 8 -3 -2 9
-7 9 -13 39 -13 66 0 39 6 58 28 89 27 37 80 82 86 73 2 -2 19 6 38 18 29 17
51 21 121 21 79 0 89 -2 126 -29z m-1103 -6 c3 -9 0 -15 -9 -15 -8 0 -15 7
-15 15 0 8 4 15 9 15 5 0 11 -7 15 -15z m490 -67 c-4 -6 3 -8 17 -4 13 3 19 4
13 1 -6 -3 -9 -23 -7 -44 2 -35 0 -40 -28 -51 -38 -16 -57 -2 -37 29 7 11 19
21 27 21 8 0 12 3 8 6 -3 4 -22 3 -42 0 -30 -6 -35 -11 -35 -34 0 -19 -3 -23
-9 -13 -12 19 6 69 29 81 10 6 29 10 41 10 19 0 20 2 8 18 -13 15 -12 16 3 3
10 -7 15 -18 12 -23z m736 -60 c20 -43 27 -142 12 -164 -4 -7 -7 21 -7 60 0
40 -5 79 -11 87 -12 15 -25 59 -18 59 3 0 14 -19 24 -42z m-1244 -16 c-14 -15
-26 -22 -26 -17 0 16 45 65 49 53 2 -5 -8 -22 -23 -36z m584 29 c0 -5 -6 -13
-13 -19 -10 -8 -13 -6 -13 9 0 10 6 19 13 19 7 0 13 -4 13 -9z m-449 -195
l-15 -66 -40 7 c-55 8 -96 21 -73 22 9 1 17 6 17 12 0 6 9 8 21 4 14 -5 19 -3
15 3 -3 6 3 13 14 17 11 4 18 10 15 15 -3 5 6 12 20 16 13 3 22 10 19 15 -3 5
0 9 6 9 6 0 8 5 4 12 -4 6 -3 8 3 5 6 -4 4 -30 -6 -71z m562 47 c-3 -17 6 -47
20 -74 22 -45 15 -60 -10 -20 -16 26 -28 121 -16 121 5 0 8 -12 6 -27z m-398
-53 c3 -6 -1 -7 -9 -4 -18 7 -21 14 -7 14 6 0 13 -4 16 -10z m925 -33 c0 -2
-15 -16 -32 -33 l-33 -29 29 33 c28 30 36 37 36 29z m-946 -53 c0 -16 4 -32
10 -36 6 -4 4 -9 -7 -14 -36 -13 -72 56 -38 76 25 14 36 6 35 -26z m684 10
c-54 -16 -66 -39 -18 -32 17 3 33 1 36 -4 7 -11 -98 -10 -116 2 -12 8 -10 10
10 10 19 0 22 2 10 10 -13 8 -13 10 0 14 22 7 61 13 95 14 25 0 21 -2 -17 -14z
m-203 -15 c11 -16 1 -19 -13 -3 -7 8 -8 14 -3 14 5 0 13 -5 16 -11z m-507
-141 c-3 -7 5 -20 16 -30 20 -16 20 -17 2 -18 -26 0 -13 -48 21 -76 14 -12 21
-24 16 -27 -12 -8 -56 22 -82 55 -25 31 -29 88 -6 88 8 0 15 5 15 10 0 6 5 10
11 10 6 0 9 -6 7 -12z m-108 -99 c0 -11 -3 -11 -24 -3 -23 9 -20 23 4 17 11
-3 20 -9 20 -14z m479 -39 c36 0 42 -7 29 -36 -13 -29 -53 -42 -79 -25 -26 16
-50 14 -43 -3 3 -8 11 -13 17 -11 12 5 54 -22 46 -29 -8 -8 -35 -9 -62 -1 -33
9 -34 43 -2 60 14 7 20 18 18 37 -2 25 0 26 23 18 14 -6 38 -10 53 -10z m-221
-5 c-2 -2 -34 -19 -71 -39 -75 -39 -117 -49 -76 -18 37 29 131 72 141 66 5 -3
8 -7 6 -9z m411 -81 c17 -4 28 -10 25 -15 -3 -5 -9 -7 -14 -4 -24 15 -19 -60
14 -185 25 -96 28 -133 5 -63 -7 21 -12 39 -11 40 1 2 -7 22 -17 46 -11 24
-28 76 -39 115 -22 78 -22 78 37 66z m-176 -64 c3 -13 -3 -24 -19 -35 -28 -18
-47 -20 -41 -2 2 6 10 11 16 10 6 -2 11 5 11 15 0 35 25 44 33 12z m572 -20
c19 0 36 -25 42 -61 2 -18 9 -43 14 -56 6 -16 5 -23 -4 -24 -9 0 -9 -2 1 -6 6
-2 10 -9 6 -14 -3 -5 -1 -9 4 -9 9 0 11 -6 15 -55 1 -16 8 -36 15 -44 11 -12
11 -15 0 -22 -11 -7 -11 -9 0 -9 7 0 10 -4 7 -10 -3 -5 -2 -10 3 -10 5 0 9 -6
10 -12 1 -17 9 -49 17 -70 4 -11 0 -18 -16 -23 -25 -8 -48 14 -50 47 -2 20 -1
18 -18 78 -7 25 -15 53 -17 62 -2 10 -6 28 -9 41 -3 12 -7 32 -9 44 -3 12 -9
30 -15 41 -6 11 -7 22 -4 26 4 3 -9 4 -28 1 -25 -3 -28 -3 -10 3 28 9 39 29
17 29 -8 0 -13 -4 -10 -9 3 -4 -3 -8 -13 -8 -12 0 -19 8 -20 21 -2 17 3 20 22
17 21 -4 23 -3 14 13 -6 13 -6 19 1 19 5 0 11 8 11 18 1 16 2 16 6 0 2 -10 10
-18 18 -18z m125 -40 c0 -11 -11 -13 -34 -4 -8 3 -12 12 -9 20 4 10 10 11 24
3 10 -5 19 -14 19 -19z m110 -20 c8 -5 11 -10 5 -10 -5 0 -17 5 -25 10 -8 5
-10 10 -5 10 6 0 17 -5 25 -10z m-337 -85 c-1 -5 3 -18 8 -27 7 -14 6 -18 -6
-18 -9 0 -14 4 -11 9 3 5 -1 12 -10 15 -8 3 -12 2 -9 -4 8 -13 -7 -13 -40 0
-14 5 -24 14 -20 19 3 5 0 13 -6 16 -5 4 -8 13 -5 21 3 8 1 14 -4 14 -6 0 -10
6 -10 14 0 11 15 6 57 -17 31 -18 56 -36 56 -42z m317 39 c13 -32 13 -34 -2
-34 -22 0 -38 15 -43 38 -6 33 33 29 45 -4z m133 19 c-7 -2 -19 -2 -25 0 -7 3
-2 5 12 5 14 0 19 -2 13 -5z m112 -13 c3 -5 -1 -10 -10 -10 -9 0 -13 5 -10 10
3 6 8 10 10 10 2 0 7 -4 10 -10z m-488 -16 c-3 -3 -12 -4 -19 -1 -8 3 -5 6 6
6 11 1 17 -2 13 -5z m6 -21 c-7 -2 -19 -2 -25 0 -7 3 -2 5 12 5 14 0 19 -2 13
-5z m-186 -47 c8 -9 -37 -3 -72 10 -20 7 -20 7 0 -12 12 -10 15 -15 8 -10 -8
5 -13 4 -13 -3 0 -6 7 -14 15 -17 8 -4 15 -11 15 -17 0 -18 -56 41 -57 61 -1
17 2 18 47 8 27 -6 52 -15 57 -20z m190 28 c-3 -3 -12 -4 -19 -1 -8 3 -5 6 6
6 11 1 17 -2 13 -5z m254 -38 c7 -24 5 -26 -14 -20 -25 8 -37 22 -37 46 0 28
43 6 51 -26z m-316 -17 c14 -14 -35 -9 -75 7 l-35 13 50 -5 c28 -4 54 -10 60
-15z m-130 1 c13 -6 15 -9 5 -9 -8 0 -22 4 -30 9 -18 12 -2 12 25 0z m142 -34
c4 -5 -7 -6 -24 -2 -18 3 -46 9 -63 12 -16 3 -30 9 -30 13 0 9 106 -11 117
-23z m70 18 c-3 -3 -12 -4 -19 -1 -8 3 -5 6 6 6 11 1 17 -2 13 -5z m-172 -19
l50 -15 -44 5 c-24 3 -51 10 -60 15 -23 14 -3 12 54 -5z m178 -2 c-7 -2 -19
-2 -25 0 -7 3 -2 5 12 5 14 0 19 -2 13 -5z m-443 -11 c0 -13 -12 -22 -22 -16
-10 6 -1 24 13 24 5 0 9 -4 9 -8z m361 -2 c5 0 9 -4 9 -9 0 -14 -43 -7 -48 8
-3 10 0 12 12 8 10 -4 22 -7 27 -7z m86 -6 c-3 -3 -12 -4 -19 -1 -8 3 -5 6 6
6 11 1 17 -2 13 -5z m-127 -24 c0 -4 -11 -5 -25 -2 -14 2 -25 8 -25 12 0 4 11
5 25 2 14 -2 25 -8 25 -12z m384 1 c2 -3 6 -18 10 -34 6 -26 5 -27 -21 -21
-35 8 -32 5 -39 41 -6 29 -4 30 20 26 15 -3 28 -8 30 -12z m-247 3 c-3 -3 -12
-4 -19 -1 -8 3 -5 6 6 6 11 1 17 -2 13 -5z m-337 -14 c0 -5 -2 -10 -4 -10 -3
0 -8 5 -11 10 -3 6 -1 10 4 10 6 0 11 -4 11 -10z m260 2 c0 -10 -38 -13 -44
-3 -3 3 6 8 20 9 13 1 24 -2 24 -6z m-51 -18 c10 -9 -35 -3 -49 6 -11 8 -7 9
15 4 17 -4 32 -8 34 -10z m56 -14 c8 -13 -15 -13 -35 0 -12 8 -11 10 7 10 12
0 25 -4 28 -10z m-2 -27 c-7 -2 -19 -2 -25 0 -7 3 -2 5 12 5 14 0 19 -2 13 -5z
m84 1 c-3 -3 -12 -4 -19 -1 -8 3 -5 6 6 6 11 1 17 -2 13 -5z m242 -16 c5 -13
5 -27 0 -32 -5 -6 -9 -19 -9 -30 0 -26 -28 -56 -52 -56 -12 0 -24 12 -33 32
-16 40 -14 44 26 52 27 5 30 9 25 31 -5 21 -3 25 14 25 12 0 24 -9 29 -22z
m-325 -4 c23 -9 20 -23 -4 -17 -11 3 -20 9 -20 14 0 11 3 11 24 3z m98 -18
c-2 -13 1 -16 10 -10 10 6 10 4 -1 -9 -11 -14 -11 -17 0 -17 11 0 11 -2 -1 -9
-19 -13 -30 -5 -25 19 2 11 0 20 -4 20 -4 0 -8 7 -8 15 0 9 7 14 16 13 9 -2
15 -12 13 -22z m273 -54 c-3 -3 -11 0 -18 7 -9 10 -8 11 6 5 10 -3 15 -9 12
-12z m138 -39 c-7 -2 -19 -2 -25 0 -7 3 -2 5 12 5 14 0 19 -2 13 -5z m-208
-123 c3 -5 1 -10 -4 -10 -6 0 -11 5 -11 10 0 6 2 10 4 10 3 0 8 -4 11 -10z
m-204 -855 c-3 -5 -7 -2 -9 8 -2 11 -9 16 -18 13 -17 -7 -18 6 -2 22 9 9 14 6
23 -11 7 -12 9 -26 6 -32z m434 -55 c-4 -6 10 -8 39 -4 42 6 45 5 50 -17 2
-13 9 -51 16 -84 6 -33 14 -67 16 -77 4 -13 -14 -22 -88 -47 -201 -66 -294
-76 -368 -38 -41 20 -45 25 -47 62 -1 22 1 32 4 21 4 -16 7 -15 24 10 16 25
17 31 4 50 -12 19 -11 24 13 47 27 25 84 57 99 57 4 -1 -9 -10 -30 -21 -53
-28 -41 -34 17 -8 26 11 54 18 61 15 8 -3 17 -1 21 5 3 6 13 8 21 5 8 -3 23
-2 33 4 10 5 32 11 50 12 17 1 34 6 36 10 3 4 12 8 20 8 8 0 12 -4 9 -10z
m-831 -151 c59 -29 84 -79 79 -155 -4 -64 -20 -114 -35 -114 -5 0 -24 -14 -41
-31 -17 -17 -44 -36 -59 -41 -31 -11 -28 -33 3 -23 20 7 23 -2 13 -29 -9 -24
-116 -22 -168 4 -48 23 -77 60 -49 61 11 0 13 3 5 6 -11 4 -42 54 -42 68 0 4
7 -1 16 -9 27 -27 36 -17 14 14 -12 17 -25 56 -30 88 -7 53 -5 59 19 88 75 88
186 118 275 73z m121 -145 c6 -44 1 -37 -14 20 -7 26 -7 36 0 29 5 -5 12 -27
14 -49z m364 10 c14 -12 -19 -1 -35 12 -18 14 -18 14 6 3 14 -6 27 -13 29 -15z
m57 -22 c-10 -2 -22 0 -28 6 -6 6 0 7 19 4 21 -5 23 -7 9 -10z m-456 -142 c0
-5 -5 -10 -11 -10 -5 0 -7 5 -4 10 3 6 8 10 11 10 2 0 4 -4 4 -10z m-870 -500
c0 -6 11 -8 27 -4 22 6 25 4 19 -11 -3 -10 -1 -23 5 -31 7 -9 7 -18 -1 -33
-15 -30 -86 -30 -95 -1 -7 23 2 60 15 60 5 0 7 7 4 15 -4 9 0 15 10 15 9 0 16
-5 16 -10z m160 -1 c0 -6 11 -8 28 -5 26 6 27 5 26 -31 -1 -63 -1 -63 -48 -63
-54 0 -65 19 -39 72 17 37 33 49 33 27z m367 -1 c6 -7 13 -30 17 -50 6 -31 3
-39 -13 -47 -36 -20 -71 -13 -82 15 -10 27 1 48 41 81 19 16 25 16 37 1z
m-147 -43 c0 -57 -20 -69 -92 -56 -12 2 -9 44 4 72 9 20 20 25 50 26 l38 2 0
-44z m325 9 c22 -53 7 -76 -47 -72 -37 3 -42 6 -45 32 -3 20 3 36 18 52 32 34
56 31 74 -12z m163 3 c15 -42 15 -42 -4 -61 -23 -24 -81 -21 -89 4 -8 25 14
78 35 84 36 9 47 5 58 -27z m159 18 c-4 -8 -2 -17 3 -20 16 -10 12 -52 -6 -70
-16 -15 -48 -16 -71 -2 -24 15 -15 64 15 86 32 24 67 28 59 6z m-1016 -133
c25 -30 31 -77 11 -95 -24 -21 -70 -27 -83 -11 -17 20 -2 86 24 106 28 22 29
22 48 0z m162 -6 c28 -22 32 -71 8 -95 -29 -29 -69 -27 -81 3 -9 26 -3 66 11
66 5 0 6 6 3 14 -5 12 6 19 36 25 3 0 13 -6 23 -13z m168 1 c9 -7 19 -27 22
-45 8 -40 -19 -72 -62 -72 -45 0 -54 43 -21 98 21 34 35 39 61 19z m165 -5
c49 -40 26 -112 -37 -112 -23 0 -32 6 -39 26 -11 27 -2 48 28 67 6 4 12 15 12
22 0 19 10 19 36 -3z m164 1 c27 -26 35 -67 16 -85 -8 -9 -13 -18 -10 -21 9
-9 -35 -19 -55 -12 -38 12 -34 95 5 95 8 0 12 5 9 10 -6 10 1 30 11 30 3 0 13
-8 24 -17z m172 -5 c21 -10 25 -18 23 -51 -1 -21 -7 -43 -12 -48 -15 -15 -74
-14 -84 2 -12 19 -11 46 2 54 5 4 14 18 19 31 11 27 16 29 52 12z m166 -8 c25
-23 30 -81 10 -97 -11 -8 -77 -16 -78 -10 -11 53 -9 75 11 100 27 32 29 33 57
7z"/>
<path d="M962 3956 c-48 -10 -55 -15 -68 -46 -8 -19 -22 -39 -30 -43 -13 -8
-12 -12 8 -34 38 -41 68 -52 116 -43 41 7 68 20 43 20 -7 0 -9 5 -6 10 3 6 2
10 -2 10 -5 0 -10 10 -10 22 -1 13 -7 24 -14 27 -8 2 -7 6 2 12 21 13 -15 12
-45 -2 -30 -14 -41 -38 -21 -45 8 -3 11 -12 8 -21 -5 -12 -3 -14 7 -8 9 5 11
4 6 -3 -11 -18 -34 -14 -45 7 -7 13 -7 28 -1 48 9 24 20 31 67 44 47 11 57 18
58 37 2 24 2 24 -73 8z m12 -95 c15 -6 16 -9 5 -13 -8 -3 -20 1 -27 8 -14 15
-7 17 22 5z"/>
<path d="M862 3915 c-15 -32 -15 -35 -2 -35 6 0 10 8 10 18 0 10 5 23 12 30 7
7 8 12 2 12 -6 0 -16 -11 -22 -25z"/>
<path d="M1085 3926 c-19 -14 -19 -15 -1 -35 23 -25 10 -28 -17 -3 -15 12 -18
13 -12 2 16 -25 14 -40 -3 -40 -13 0 -14 -2 -4 -9 8 -4 13 -11 13 -15 -1 -3 2
-7 6 -8 4 -2 18 17 32 41 18 33 21 45 11 51 -7 4 -9 13 -6 19 9 15 4 14 -19
-3z"/>
<path d="M1100 3036 c0 -2 7 -7 16 -10 8 -3 12 -2 9 4 -6 10 -25 14 -25 6z"/>
<path d="M1480 2875 c0 -5 5 -17 10 -25 5 -8 10 -10 10 -5 0 6 -5 17 -10 25
-5 8 -10 11 -10 5z"/>
<path d="M1575 1613 c-92 -16 -145 -41 -156 -71 -8 -21 -8 -21 39 3 26 13 76
32 112 41 145 40 148 53 5 27z"/>
<path d="M1400 1570 c-13 -8 -12 -10 3 -10 9 0 17 5 17 10 0 12 -1 12 -20 0z"/>
<path d="M757 1423 c-4 -3 -7 -15 -7 -25 0 -11 -13 -23 -35 -32 -34 -15 -42
-30 -27 -52 15 -24 92 -1 92 27 0 27 25 24 43 -5 15 -22 15 -25 1 -30 -9 -3
-29 -6 -45 -6 -24 0 -29 -4 -29 -25 0 -39 33 -31 85 20 59 59 60 81 3 76 -10
-1 -18 2 -18 8 0 6 -7 8 -16 4 -12 -4 -14 0 -8 21 5 21 3 26 -13 26 -11 0 -23
-3 -26 -7z"/>
<path d="M1416 4785 c4 -8 10 -12 15 -9 14 8 10 24 -6 24 -9 0 -12 -6 -9 -15z"/>
<path d="M2153 4783 c15 -15 19 -16 32 -2 13 13 11 15 -17 17 -31 3 -32 2 -15
-15z"/>
<path d="M1345 4670 c-3 -5 -1 -10 4 -10 6 0 11 5 11 10 0 6 -2 10 -4 10 -3 0
-8 -4 -11 -10z"/>
<path d="M1195 4620 c-3 -6 1 -7 9 -4 18 7 21 14 7 14 -6 0 -13 -4 -16 -10z"/>
<path d="M1188 4583 c6 -2 18 -2 25 0 6 3 1 5 -13 5 -14 0 -19 -2 -12 -5z"/>
<path d="M981 4549 l-25 -20 30 7 c36 8 40 12 28 23 -5 6 -19 2 -33 -10z"/>
<path d="M1960 4414 l-25 -15 25 7 c14 3 32 10 40 15 13 7 13 8 0 8 -8 0 -26
-6 -40 -15z"/>
<path d="M1280 4300 c0 -5 4 -10 9 -10 6 0 13 5 16 10 3 6 -1 10 -9 10 -9 0
-16 -4 -16 -10z"/>
<path d="M280 4209 c0 -5 5 -7 10 -4 6 3 10 8 10 11 0 2 -4 4 -10 4 -5 0 -10
-5 -10 -11z"/>
<path d="M1136 4171 c17 -4 37 -12 45 -17 8 -5 22 -7 33 -5 12 2 16 -1 10 -10
-5 -9 -2 -10 12 -5 10 4 15 4 12 0 -4 -3 -1 -12 5 -19 9 -9 17 -10 31 -3 16 8
18 7 13 -6 -4 -9 -1 -16 6 -16 7 0 18 -9 25 -20 7 -11 19 -20 28 -20 8 0 13
-4 9 -9 -3 -6 8 -25 25 -44 37 -43 55 -122 40 -178 -6 -21 -26 -61 -45 -89
-19 -29 -35 -55 -35 -60 0 -34 -172 -144 -231 -148 -42 -3 -104 -27 -101 -40
1 -7 -8 -12 -20 -13 -14 -1 -7 -5 17 -11 22 -5 57 -7 77 -5 38 5 200 82 206
98 2 5 8 9 14 9 20 0 86 78 114 137 25 51 29 70 31 156 0 53 -3 97 -8 97 -5 0
-7 11 -3 24 4 17 0 28 -13 36 -14 9 -15 10 -1 6 9 -3 19 2 22 11 8 20 -23 56
-41 48 -8 -2 -12 -1 -8 4 16 28 -137 92 -230 97 -49 2 -61 1 -39 -5z m304
-131 c0 -10 -27 -7 -37 5 -4 4 -2 5 5 1 6 -4 12 -2 12 4 0 6 5 8 10 5 6 -3 10
-10 10 -15z"/>
<path d="M651 4033 c7 -10 15 -20 16 -22 2 -2 3 3 3 11 0 9 -7 19 -16 22 -15
6 -15 4 -3 -11z"/>
<path d="M1460 3996 c0 -20 5 -36 11 -36 6 0 8 9 4 21 -5 15 -4 19 4 15 17
-11 13 10 -4 24 -13 11 -15 7 -15 -24z"/>
<path d="M1490 3970 c0 -5 5 -10 11 -10 5 0 7 5 4 10 -3 6 -8 10 -11 10 -2 0
-4 -4 -4 -10z"/>
<path d="M1531 3820 c-2 -64 -34 -150 -80 -212 l-33 -43 45 48 c77 84 98 148
77 232 -6 25 -8 21 -9 -25z"/>
<path d="M5198 3806 c-23 -17 -25 -61 -2 -52 37 14 62 17 68 7 4 -5 13 -8 21
-4 9 3 21 0 29 -6 11 -9 12 -6 8 14 -3 17 -9 24 -18 21 -8 -3 -14 1 -14 8 0
25 -64 34 -92 12z"/>
<path d="M4644 3726 c-3 -8 -4 -25 -2 -38 3 -17 5 -13 9 15 5 38 2 47 -7 23z"/>
<path d="M5190 3729 c0 -5 5 -7 10 -4 6 3 10 8 10 11 0 2 -4 4 -10 4 -5 0 -10
-5 -10 -11z"/>
<path d="M5914 3729 c-4 -7 9 -25 32 -45 58 -50 92 -43 37 7 -51 46 -61 51
-69 38z"/>
<path d="M5215 3719 c-10 -15 -5 -17 42 -23 42 -5 64 6 42 20 -8 5 -9 3 -4 -6
6 -10 4 -12 -9 -7 -10 4 -23 7 -29 8 -7 0 -3 4 8 9 17 7 15 9 -12 9 -17 1 -35
-4 -38 -10z"/>
<path d="M4774 3709 c-3 -5 6 -9 20 -9 31 0 34 6 6 13 -11 3 -23 1 -26 -4z"/>
<path d="M5793 3693 c9 -2 23 -2 30 0 6 3 -1 5 -18 5 -16 0 -22 -2 -12 -5z"/>
<path d="M4710 3675 c0 -8 7 -15 16 -15 14 0 14 3 4 15 -7 8 -14 15 -16 15 -2
0 -4 -7 -4 -15z"/>
<path d="M4780 3680 c0 -5 4 -10 9 -10 6 0 13 5 16 10 3 6 -1 10 -9 10 -9 0
-16 -4 -16 -10z"/>
<path d="M4818 3655 c-3 -14 -1 -25 3 -25 5 0 9 11 9 25 0 14 -2 25 -4 25 -2
0 -6 -11 -8 -25z"/>
<path d="M653 3630 c-10 -16 -6 -22 30 -45 27 -17 34 -19 18 -6 -13 12 -21 27
-18 35 9 24 -17 38 -30 16z m27 -4 c0 -3 -4 -8 -10 -11 -5 -3 -10 -1 -10 4 0
6 5 11 10 11 6 0 10 -2 10 -4z"/>
<path d="M4620 3641 c0 -5 5 -13 10 -16 6 -3 10 -2 10 4 0 5 -4 13 -10 16 -5
3 -10 2 -10 -4z"/>
<path d="M4904 3639 c-5 -8 -9 -17 -9 -21 0 -17 -58 -68 -76 -68 -11 0 -18 -4
-15 -9 4 -5 0 -12 -6 -14 -7 -3 -2 -6 10 -6 39 -2 86 28 103 63 16 35 11 83
-7 55z"/>
<path d="M5200 3630 c-98 -11 -175 -41 -249 -95 -65 -48 -100 -95 -125 -169
-33 -95 -12 -230 51 -329 37 -60 130 -147 190 -180 64 -34 79 -19 21 21 -70
48 -147 137 -181 209 -25 54 -32 84 -35 146 -4 71 -1 84 27 141 77 157 251
236 455 207 44 -6 91 -14 103 -17 18 -5 21 -3 16 15 -11 41 -142 66 -273 51z"/>
<path d="M5796 3605 c-19 -15 -24 -25 -16 -30 6 -4 17 0 23 9 13 17 58 11 56
-8 -4 -35 2 -43 26 -38 20 3 23 7 14 18 -6 8 -8 14 -3 15 5 0 -1 4 -13 9 -13
5 -23 16 -23 24 0 24 -35 24 -64 1z"/>
<path d="M4185 3560 c-9 -16 -13 -30 -11 -30 3 0 12 14 21 30 9 17 13 30 11
30 -3 0 -12 -13 -21 -30z"/>
<path d="M730 3566 c0 -9 5 -16 10 -16 6 0 10 4 10 9 0 6 -4 13 -10 16 -5 3
-10 -1 -10 -9z"/>
<path d="M5696 3545 c-9 -24 -10 -22 31 -50 46 -31 80 -34 36 -3 -17 13 -38
33 -46 46 -12 21 -15 22 -21 7z"/>
<path d="M5578 3533 c-12 -3 7 -28 73 -91 71 -68 98 -103 127 -161 33 -67 37
-83 37 -150 0 -90 -26 -155 -83 -215 -101 -105 -238 -146 -402 -121 -47 7
-105 16 -130 19 l-45 7 38 -21 c22 -12 69 -28 105 -36 230 -48 453 36 548 208
27 49 29 61 29 158 0 88 -4 113 -23 154 -58 127 -209 263 -274 249z"/>
<path d="M2038 3463 c6 -2 18 -2 25 0 6 3 1 5 -13 5 -14 0 -19 -2 -12 -5z"/>
<path d="M1967 3438 c-28 -27 -40 -55 -27 -63 6 -4 10 -1 10 6 0 22 51 68 69
62 14 -4 14 -3 1 6 -21 15 -26 14 -53 -11z"/>
<path d="M4797 3417 c-23 -36 -47 -125 -47 -177 0 -61 25 -152 58 -214 31 -56
109 -145 156 -178 17 -12 3 7 -34 45 -67 68 -130 166 -130 202 0 12 -6 27 -12
34 -9 8 -13 47 -13 119 0 92 4 113 23 150 24 45 24 56 -1 19z"/>
<path d="M4116 3405 c-3 -9 -6 -22 -5 -28 0 -7 5 -1 10 12 5 13 8 26 5 28 -2
2 -6 -3 -10 -12z"/>
<path d="M1040 3400 c-34 -7 -34 -7 -5 -8 17 0 41 4 55 8 33 11 0 11 -50 0z"/>
<path d="M1297 3392 c-23 -25 -22 -69 2 -82 33 -17 78 -11 107 13 22 20 26 29
20 52 -6 23 -9 26 -16 14 -8 -12 -14 -12 -41 4 -39 22 -52 21 -72 -1z"/>
<path d="M5233 3351 c-47 -22 -71 -53 -80 -104 -6 -39 16 -94 49 -124 l21 -18
-17 32 c-9 19 -16 56 -16 91 0 50 4 62 26 83 l26 24 -15 -35 c-33 -80 10 -162
92 -177 86 -15 96 -14 130 9 36 24 53 63 44 98 -4 15 -11 19 -24 15 -10 -4
-32 1 -49 9 -16 9 -43 23 -58 31 -32 16 -71 10 -89 -14 -13 -19 -19 -15 -28
19 -9 39 15 63 71 71 l49 6 -45 1 c-25 1 -63 -7 -87 -17z m171 -101 c13 -13
17 -70 5 -70 -6 0 -8 -4 -5 -9 3 -5 -1 -11 -9 -15 -8 -3 -17 0 -21 6 -4 7 -3
8 4 4 7 -4 12 -3 12 2 0 6 -7 13 -16 16 -8 3 -12 2 -9 -4 8 -13 -5 -13 -25 0
-10 6 -11 10 -2 10 14 0 12 21 -3 32 -5 4 -21 7 -35 7 l-25 -1 25 -8 25 -8
-25 -2 c-23 -1 -23 -2 -5 -10 16 -7 16 -9 4 -9 -9 -1 -20 -8 -23 -17 -10 -26
-23 -6 -23 36 0 38 1 40 31 40 17 0 38 5 46 10 16 11 59 5 74 -10z m-38 -102
l19 -21 -30 18 c-41 26 -40 25 -23 25 8 0 23 -10 34 -22z m84 16 c0 -3 -7 -12
-15 -21 -20 -19 -32 -10 -14 11 14 15 29 21 29 10z m-99 -31 c13 -15 12 -15
-8 -4 -24 12 -29 21 -14 21 5 0 15 -7 22 -17z"/>
<path d="M2022 3340 c-6 -17 -6 -27 2 -32 18 -12 30 9 19 34 l-11 23 -10 -25z"/>
<path d="M5435 3330 c3 -5 8 -10 11 -10 2 0 4 5 4 10 0 6 -5 10 -11 10 -5 0
-7 -4 -4 -10z"/>
<path d="M5455 3310 c-3 -5 -1 -10 4 -10 6 0 11 5 11 10 0 6 -2 10 -4 10 -3 0
-8 -4 -11 -10z"/>
<path d="M1951 3291 c-8 -13 -7 -22 2 -29 9 -8 13 -3 14 19 3 34 -2 37 -16 10z"/>
<path d="M5476 3295 c-3 -9 -2 -13 4 -10 6 3 10 1 10 -5 0 -6 4 -9 9 -6 10 7
25 -47 23 -84 -1 -13 -11 -38 -23 -54 -12 -16 -16 -25 -9 -21 8 5 11 3 8 -6
-5 -15 -61 -38 -123 -49 l-40 -7 48 -2 c120 -3 196 92 152 189 -10 22 -26 46
-35 55 -16 14 -18 14 -24 0z"/>
<path d="M2042 3292 c-7 -2 -10 -7 -7 -12 3 -5 -3 -11 -13 -14 -10 -4 -31 -20
-47 -36 -23 -24 -25 -30 -12 -35 8 -4 29 1 46 9 34 18 42 19 40 9 -3 -20 2
-43 10 -43 4 0 7 14 5 30 -3 28 -2 30 33 30 28 0 61 -16 142 -68 90 -58 162
-92 196 -92 4 0 -61 45 -145 100 -100 65 -163 100 -181 100 -15 0 -34 6 -41
13 -7 8 -19 12 -26 9z"/>
<path d="M4092 3270 c0 -19 2 -27 5 -17 2 9 2 25 0 35 -3 9 -5 1 -5 -18z"/>
<path d="M4486 3239 c-32 -25 -33 -50 -3 -85 21 -24 85 -45 71 -23 -3 5 -1 9
5 9 5 0 13 -5 16 -10 8 -13 25 -3 25 13 0 7 -4 6 -10 -3 -9 -13 -14 -7 -11 12
0 4 -6 5 -14 2 -10 -4 -13 0 -10 15 2 13 -1 21 -10 21 -15 0 -28 -27 -19 -41
3 -5 0 -9 -5 -9 -11 0 -15 13 -12 37 1 8 -5 10 -14 6 -13 -4 -16 -1 -13 18 3
26 45 40 57 20 5 -7 15 -5 30 5 18 13 20 18 10 25 -24 15 -65 10 -93 -12z"/>
<path d="M4590 3222 c0 -5 11 -19 25 -32 l25 -24 -3 25 c-2 13 -8 24 -13 24
-5 0 -15 4 -21 8 -7 5 -13 4 -13 -1z"/>
<path d="M6025 3165 c-17 -7 -23 -14 -15 -14 10 -1 7 -6 -8 -17 -32 -22 -21
-30 40 -28 48 2 56 -1 79 -28 16 -18 29 -26 33 -20 9 15 -25 90 -44 96 -8 3
-24 10 -35 15 -14 6 -31 4 -50 -4z"/>
<path d="M4081 3130 c0 -8 4 -22 9 -30 12 -18 12 -2 0 25 -6 13 -9 15 -9 5z"/>
<path d="M6040 3070 c12 -8 12 -10 -5 -10 -19 -1 -19 -1 -1 -11 14 -9 20 -8
27 2 8 13 -6 29 -26 29 -5 0 -3 -5 5 -10z"/>
<path d="M4071 3054 c0 -11 3 -14 6 -6 3 7 2 16 -1 19 -3 4 -6 -2 -5 -13z"/>
<path d="M1730 3040 c0 -6 5 -10 10 -10 6 0 9 -5 8 -11 -2 -6 2 -13 9 -16 7
-3 10 3 6 16 -5 20 -33 38 -33 21z"/>
<path d="M4073 3000 c2 -20 7 -42 12 -49 5 -9 4 -12 -3 -7 -7 4 -12 -7 -15
-31 -3 -32 -4 -29 -5 15 -3 81 -17 62 -29 -38 -20 -177 41 -453 134 -602 35
-57 37 -46 3 15 -28 51 -67 148 -54 134 9 -9 35 13 29 23 -3 5 -1 20 5 35 9
23 13 25 25 15 8 -7 15 -17 15 -22 0 -10 78 -118 85 -118 2 0 -19 36 -46 79
-30 47 -48 85 -43 92 4 7 3 10 -3 6 -18 -11 -32 37 -17 58 12 16 14 16 14 3 0
-22 42 -87 57 -88 6 0 14 -6 17 -12 3 -7 4 -1 1 15 -6 31 -6 31 31 17 l27 -11
-18 28 c-36 57 -42 63 -50 55 -5 -4 -5 -2 -2 4 4 6 -10 38 -29 70 -20 32 -45
82 -56 109 -11 28 -24 58 -30 69 -7 13 -6 16 3 10 13 -8 11 10 -15 101 -11 36
-15 43 -16 25 -2 -21 -3 -22 -7 -5 -9 38 -24 42 -20 5z m55 -105 c-3 -3 -9 2
-12 12 -6 14 -5 15 5 6 7 -7 10 -15 7 -18z m-74 -100 c-4 -8 -8 -15 -10 -15
-2 0 -4 7 -4 15 0 8 4 15 10 15 5 0 7 -7 4 -15z m126 -95 c-6 -11 -8 -26 -4
-33 5 -8 4 -9 -4 -2 -13 11 -5 55 10 55 5 0 4 -9 -2 -20z m-22 -85 c-3 -3 -9
2 -12 12 -6 14 -5 15 5 6 7 -7 10 -15 7 -18z"/>
<path d="M1855 3000 c-3 -6 1 -7 9 -4 18 7 21 14 7 14 -6 0 -13 -4 -16 -10z"/>
<path d="M3260 2963 c0 -4 42 -8 93 -8 82 0 98 -4 147 -29 30 -16 75 -49 99
-75 24 -25 39 -37 33 -26 -20 40 -75 88 -131 113 -45 22 -75 27 -148 30 -51 2
-93 0 -93 -5z"/>
<path d="M5851 2915 c-11 -20 -21 -39 -21 -42 0 -4 -10 -18 -22 -32 l-23 -26
23 19 c23 20 75 106 68 113 -2 2 -13 -12 -25 -32z"/>
<path d="M1645 2910 c-3 -5 -1 -10 4 -10 6 0 11 5 11 10 0 6 -2 10 -4 10 -3 0
-8 -4 -11 -10z"/>
<path d="M4830 2886 c42 -17 58 -20 45 -7 -6 5 -26 12 -45 15 l-35 6 35 -14z"/>
<path d="M4712 2870 c-37 -23 -61 -70 -69 -140 -4 -33 -2 -50 7 -55 10 -6 12
-1 8 19 -3 14 -1 29 3 32 5 3 9 20 9 37 0 44 19 77 59 104 42 28 28 30 -17 3z"/>
<path d="M4205 2855 c10 -32 74 -143 87 -151 7 -4 1 9 -11 30 -13 21 -37 61
-53 89 -16 29 -27 43 -23 32z"/>
<path d="M4929 2834 c29 -25 41 -43 38 -55 -3 -10 1 -26 9 -36 13 -17 13 -17
14 0 0 33 -28 84 -58 106 -48 34 -50 24 -3 -15z"/>
<path d="M5829 2811 c-36 -29 -20 -32 31 -6 40 22 42 24 19 25 -15 0 -37 -9
-50 -19z"/>
<path d="M4730 2808 c0 -12 31 -38 47 -38 10 0 13 6 9 16 -5 12 -1 14 17 9 18
-6 20 -5 9 6 -13 14 -82 20 -82 7z"/>
<path d="M3260 2785 c-23 -25 -23 -26 -7 -60 16 -34 50 -56 85 -54 14 0 13 2
-3 10 -17 8 -15 9 10 5 17 -2 38 -6 47 -11 24 -10 68 39 67 74 0 14 -3 20 -6
13 -4 -10 -10 -9 -27 5 -31 28 -87 42 -117 30 l-24 -10 30 -8 30 -8 -33 3
c-24 2 -37 -3 -48 -18 -8 -11 -14 -16 -14 -10 0 6 9 23 21 38 26 33 20 34 -11
1z m150 -20 c8 -9 3 -10 -25 -1 -19 6 -35 14 -35 17 0 10 49 -2 60 -16z"/>
<path d="M1871 2791 c-22 -6 -21 -7 14 -24 37 -18 37 -18 32 2 -3 13 1 21 12
24 9 3 5 5 -9 5 -14 0 -36 -3 -49 -7z"/>
<path d="M4270 2780 c6 -11 13 -20 16 -20 2 0 0 9 -6 20 -6 11 -13 20 -16 20
-2 0 0 -9 6 -20z"/>
<path d="M4836 2765 c-8 -32 -44 -53 -53 -30 -4 13 -8 14 -14 4 -16 -27 25
-41 49 -17 6 6 26 12 44 12 31 1 55 26 24 26 -9 0 -16 7 -16 15 0 25 -27 17
-34 -10z"/>
<path d="M1796 2751 c-6 -9 51 -31 82 -31 21 0 13 -18 -10 -23 -18 -3 -17 -5
7 -6 24 -1 27 -3 15 -12 -12 -9 -12 -10 3 -5 10 3 25 6 34 6 9 0 13 6 10 14
-3 8 -1 17 6 20 7 2 4 5 -5 5 -10 1 -18 5 -18 10 0 19 -114 40 -124 22z"/>
<path d="M5850 2715 c0 -33 57 -30 68 3 2 8 -9 12 -32 12 -26 0 -36 -4 -36
-15z"/>
<path d="M5548 2703 c6 -2 18 -2 25 0 6 3 1 5 -13 5 -14 0 -19 -2 -12 -5z"/>
<path d="M5942 2678 c-7 -19 -17 -28 -33 -28 -30 0 -12 -18 21 -22 19 -2 24 1
22 15 -2 12 4 17 22 17 36 0 40 16 8 33 -28 13 -29 13 -40 -15z"/>
<path d="M4860 2690 c-8 -5 -12 -12 -9 -15 4 -3 12 1 19 10 14 17 11 19 -10 5z"/>
<path d="M5323 2693 c9 -2 23 -2 30 0 6 3 -1 5 -18 5 -16 0 -22 -2 -12 -5z"/>
<path d="M2320 2686 c0 -3 9 -10 20 -16 11 -6 20 -8 20 -6 0 3 -9 10 -20 16
-11 6 -20 8 -20 6z"/>
<path d="M2228 2673 c7 -3 16 -2 19 1 4 3 -2 6 -13 5 -11 0 -14 -3 -6 -6z"/>
<path d="M2260 2667 c15 -15 111 -64 145 -74 112 -33 171 -39 235 -26 l33 6
-48 13 c-27 6 -55 10 -61 7 -16 -6 -177 33 -213 51 -27 14 -100 32 -91 23z"/>
<path d="M3035 2629 c-8 -12 3 -97 16 -120 7 -14 3 -14 -28 2 -25 13 -40 16
-47 9 -15 -15 -27 -12 -24 6 2 12 -12 21 -52 35 -88 29 -90 21 -8 -24 42 -24
85 -50 95 -59 33 -28 64 -41 76 -29 7 7 24 -2 55 -29 59 -52 180 -92 267 -89
51 2 70 -2 123 -30 77 -39 112 -53 111 -43 -4 23 3 42 14 42 6 0 19 5 27 10
13 9 13 11 0 20 -13 8 -12 10 4 10 15 0 17 3 9 11 -13 13 -77 -16 -68 -31 4
-6 2 -10 -4 -10 -22 0 -16 26 11 42 34 21 35 31 4 51 -22 15 -25 14 -57 -11
-46 -36 -75 -52 -96 -52 -10 0 1 9 25 20 23 10 57 31 75 44 38 29 87 112 87
146 0 21 -4 19 -44 -18 -58 -54 -109 -78 -189 -92 -37 -7 -64 -16 -61 -21 3
-5 1 -9 -5 -9 -5 0 -13 5 -16 10 -4 6 -10 8 -14 5 -15 -8 -104 23 -153 54 -53
34 -132 127 -124 148 6 16 0 17 -9 2z"/>
<path d="M2570 2620 c-10 -6 1 -7 35 -4 28 4 52 8 54 10 9 9 -75 3 -89 -6z"/>
<path d="M2300 2610 c0 -6 7 -10 15 -10 8 0 15 2 15 4 0 2 -7 6 -15 10 -8 3
-15 1 -15 -4z"/>
<path d="M2340 2591 c0 -9 30 -24 36 -18 2 1 -6 8 -16 15 -11 7 -20 8 -20 3z"/>
<path d="M5322 2544 c-33 -23 -27 -32 23 -28 38 3 48 -1 70 -24 14 -15 25 -35
25 -44 0 -19 15 -24 24 -10 3 5 3 25 -1 45 -4 27 -9 34 -21 29 -11 -4 -14 -1
-10 10 13 33 -71 50 -110 22z"/>
<path d="M2562 2535 c-21 -11 -18 -13 34 -19 31 -4 59 -4 62 -1 3 3 -8 5 -24
5 -22 0 -25 3 -14 10 8 5 25 7 37 3 13 -3 23 -1 23 4 0 14 -91 12 -118 -2z"/>
<path d="M5325 2480 c3 -5 2 -10 -3 -10 -16 0 -2 -38 16 -45 8 -3 23 2 31 11
13 14 14 16 1 10 -9 -4 -7 -1 3 7 17 14 16 15 -14 26 -39 14 -42 14 -34 1z"/>
<path d="M2698 2463 c7 -3 16 -2 19 1 4 3 -2 6 -13 5 -11 0 -14 -3 -6 -6z"/>
<path d="M2744 2445 c11 -8 26 -15 34 -15 7 0 10 -5 6 -12 -5 -8 -2 -9 11 -5
9 4 23 3 29 -1 14 -11 62 -24 50 -13 -11 9 -132 61 -142 61 -4 0 2 -7 12 -15z"/>
<path d="M3614 2443 c-9 -15 -4 -21 39 -40 50 -23 67 -23 67 2 0 10 -77 55
-94 55 -1 0 -6 -8 -12 -17z"/>
<path d="M6384 2448 c-4 -7 -15 -24 -23 -38 -10 -15 -11 -21 -3 -16 13 7 46
66 38 66 -3 0 -8 -6 -12 -12z"/>
<path d="M5396 2425 c-16 -12 -17 -15 -4 -15 9 0 18 7 22 15 7 18 6 18 -18 0z"/>
<path d="M2881 2427 c2 -2 20 -14 39 -26 l35 -23 -28 26 c-15 14 -33 26 -39
26 -6 0 -9 -1 -7 -3z"/>
<path d="M2882 2374 c-14 -16 -5 -18 17 -5 7 5 9 11 5 14 -5 3 -15 -1 -22 -9z"/>
<path d="M2984 2371 c1 -22 26 -26 26 -4 0 14 -2 15 -9 4 -8 -12 -10 -12 -13
0 -4 12 -5 12 -4 0z"/>
<path d="M3792 2359 c-16 -25 -16 -26 12 -26 31 0 40 20 17 34 -14 9 -20 7
-29 -8z"/>
<path d="M6330 2369 c0 -5 5 -7 10 -4 6 3 10 8 10 11 0 2 -4 4 -10 4 -5 0 -10
-5 -10 -11z"/>
<path d="M2910 2360 c-12 -7 -10 -9 7 -7 12 0 19 5 17 9 -6 10 -6 10 -24 -2z"/>
<path d="M2966 2325 c-3 -8 -2 -14 2 -12 19 6 59 -41 65 -75 7 -48 50 -111 95
-140 162 -106 338 -89 442 42 l32 40 -26 10 c-21 8 -33 5 -62 -15 -20 -14 -42
-25 -48 -25 -6 0 8 12 32 26 23 14 40 30 37 35 -12 18 19 8 82 -26 34 -19 69
-32 77 -29 8 3 31 1 52 -5 22 -6 44 -11 49 -12 30 -5 111 -33 157 -54 29 -14
69 -25 89 -25 23 0 42 -7 54 -20 20 -22 73 -48 173 -85 66 -25 81 -21 32 8
-16 10 -30 15 -30 12 0 -9 -130 64 -157 87 -11 11 -41 24 -65 29 -23 6 -70 22
-102 37 -42 19 -61 23 -64 14 -6 -18 -16 -15 -46 13 -17 16 -39 25 -59 25 -18
0 -43 7 -55 16 -12 8 -26 12 -32 9 -5 -3 -41 10 -80 30 -60 30 -74 34 -93 24
-20 -11 -21 -11 -8 4 12 16 10 16 -26 3 -27 -10 -45 -11 -57 -4 -10 5 -20 7
-23 4 -3 -3 9 -13 28 -21 31 -15 14 -15 -21 -1 -10 4 -21 -4 -32 -24 -19 -33
-19 -33 -111 9 -23 10 -71 27 -107 36 -67 17 -97 32 -45 22 17 -3 39 -8 50
-12 11 -3 -6 8 -39 25 -34 18 -65 29 -75 25 -13 -5 -12 -9 9 -20 43 -24 12
-16 -39 10 -41 20 -50 22 -55 10z m287 -128 c133 -63 126 -72 -18 -26 -65 21
-169 96 -110 80 17 -5 74 -29 128 -54z m-26 -38 c43 -15 69 -28 57 -28 -40 -2
-114 31 -152 67 -21 20 -26 26 -11 13 15 -13 63 -36 106 -52z m177 -9 c-46 -7
-51 -5 -35 14 9 11 18 12 43 2 l30 -11 -38 -5z m605 -66 c14 -12 -19 -1 -35
12 -18 14 -18 14 6 3 14 -6 27 -13 29 -15z"/>
<path d="M6300 2324 c0 -8 5 -12 10 -9 6 3 10 10 10 16 0 5 -4 9 -10 9 -5 0
-10 -7 -10 -16z"/>
<path d="M3425 2300 c-17 -27 33 -42 54 -16 9 11 8 15 -5 20 -23 9 -42 7 -49
-4z"/>
<path d="M3760 2305 c0 -2 10 -10 23 -16 20 -11 21 -11 8 4 -13 16 -31 23 -31
12z"/>
<path d="M3900 2300 c0 -5 5 -10 11 -10 5 0 7 5 4 10 -3 6 -8 10 -11 10 -2 0
-4 -4 -4 -10z"/>
<path d="M3275 2290 c3 -5 10 -10 16 -10 5 0 9 5 9 10 0 6 -7 10 -16 10 -8 0
-12 -4 -9 -10z"/>
<path d="M6267 2272 c-15 -15 -27 -33 -27 -39 0 -6 -11 -25 -25 -41 -18 -21
-21 -32 -13 -35 9 -3 3 -15 -16 -36 -17 -17 -31 -38 -32 -47 -1 -9 -11 -25
-21 -37 -9 -12 -1 -6 20 12 20 19 37 38 37 42 0 4 17 36 38 70 37 62 75 139
69 139 -2 0 -15 -13 -30 -28z"/>
<path d="M3732 2270 c-16 -27 -16 -29 11 -26 37 4 50 15 36 32 -16 19 -32 18
-47 -6z"/>
<path d="M3845 2220 c-8 -13 13 -40 31 -40 20 0 27 19 14 35 -14 17 -36 19
-45 5z m35 -15 c7 -9 8 -15 2 -15 -5 0 -12 7 -16 15 -3 8 -4 15 -2 15 2 0 9
-7 16 -15z"/>
<path d="M3970 2206 c0 -7 10 -16 23 -19 12 -2 30 -8 40 -12 24 -10 23 21 -2
35 -28 14 -61 12 -61 -4z"/>
<path d="M4095 2149 c-9 -13 -7 -15 28 -23 20 -5 27 -3 27 8 0 23 -43 35 -55
15z"/>
<path d="M5058 2153 c7 -3 16 -2 19 1 4 3 -2 6 -13 5 -11 0 -14 -3 -6 -6z"/>
<path d="M5188 2153 c6 -2 18 -2 25 0 6 3 1 5 -13 5 -14 0 -19 -2 -12 -5z"/>
<path d="M5140 2131 c53 -17 179 -37 169 -26 -6 5 -195 45 -213 44 -6 0 14 -8
44 -18z"/>
<path d="M5238 2143 c6 -2 18 -2 25 0 6 3 1 5 -13 5 -14 0 -19 -2 -12 -5z"/>
<path d="M5388 2093 c12 -2 30 -2 40 0 9 3 -1 5 -23 4 -22 0 -30 -2 -17 -4z"/>
<path d="M5130 2049 c0 -5 10 -10 23 -10 18 -1 18 -2 4 -6 -18 -5 -18 -6 -1
-24 16 -17 16 -19 1 -19 -10 0 -17 -4 -17 -10 0 -5 -10 -10 -22 -10 -17 0 -23
-6 -24 -25 -1 -14 2 -23 6 -20 4 3 10 -2 14 -10 3 -8 0 -15 -7 -15 -7 0 -23
-3 -36 -7 -14 -3 -22 -2 -19 3 4 5 -8 9 -25 10 -18 0 -50 3 -72 7 l-40 7 40
-15 c111 -43 337 -82 379 -65 16 7 17 9 4 9 -14 1 -15 6 -8 32 5 17 14 37 21
45 9 11 6 14 -17 15 -25 2 -26 2 -6 6 13 3 27 16 33 31 6 15 16 30 22 34 8 5
7 8 -3 8 -9 0 -20 -4 -25 -9 -13 -12 -113 4 -134 22 -19 17 -91 30 -91 16z
m210 -69 c0 -5 -7 -7 -15 -4 -8 4 -15 8 -15 10 0 2 7 4 15 4 8 0 15 -4 15 -10z
m-137 -87 c-7 -2 -19 -2 -25 0 -7 3 -2 5 12 5 14 0 19 -2 13 -5z"/>
<path d="M4244 2015 c40 -27 111 -65 122 -65 10 0 -67 55 -104 74 -48 25 -59
19 -18 -9z"/>
<path d="M4406 1932 l-19 -27 24 22 c12 12 21 24 18 27 -2 2 -13 -8 -23 -22z"/>
<path d="M4355 1920 c3 -5 11 -10 16 -10 6 0 7 5 4 10 -3 6 -11 10 -16 10 -6
0 -7 -4 -4 -10z"/>
<path d="M5785 1903 c-21 -7 -42 -16 -45 -19 -7 -8 50 7 85 22 40 18 10 15
-40 -3z"/>
<path d="M5017 1790 c38 -15 195 -40 243 -38 l45 1 -40 4 c-22 2 -86 13 -143
23 -111 21 -140 24 -105 10z"/>
<path d="M4958 1723 c7 -3 16 -2 19 1 4 3 -2 6 -13 5 -11 0 -14 -3 -6 -6z"/>
<path d="M4991 1716 c8 -8 194 -36 243 -36 67 0 35 8 -74 19 -58 6 -121 14
-140 17 -19 4 -32 4 -29 0z"/>
<path d="M5016 1690 c5 -5 34 -11 64 -13 30 -3 44 -3 30 0 -14 2 -42 8 -64 13
-22 5 -35 5 -30 0z"/>
</g>
</svg>
